# xmcd
#
# Track frame offsets:
#      150
#      19830
#      33825
#      51327
#      61755
#      78325
#      97375
#      107392
#      124150
#      140007
# 
# Disc length: 2009 seconds
#
# Revision: 1
# Processed by: cddbd v1.5.2PL0 Copyright (c) Steve Scherf et al.
#
# Submitted via: FreeRIP 1.21
#
DISCID=8307d70a
DTITLE=Michael Hardie with The Texas All-Star Blues Band - Houston 
DYEAR=1991
DGENRE=Blues
TTITLE0=Walkin' Separate Paths
TTITLE1=How Can I Lose These Blues¿
TTITLE2=Ain't Nothin' You Can Do
TTITLE3=Love Conquers All
TTITLE4=My Sometime Girl
TTITLE5=Pretenders Blues
TTITLE6=It's Been a Long Day
TTITLE7='Dat Crawfish
TTITLE8=The Family Plan
TTITLE9=We're Walkin' Together
EXTD=YEAR: 1991
EXTT0=
EXTT1=
EXTT2=
EXTT3=
EXTT4=
EXTT5=
EXTT6=
EXTT7=
EXTT8=
EXTT9=
PLAYORDER=
